<svg width="9" height="15" viewBox="0 0 9 15" fill="none" xmlns="http://www.w3.org/2000/svg">
<path d="M5.97054 7.50317L0.25846 1.89146C0.101177 1.73732 0.0146532 1.53122 0.0146532 1.31146C0.0146532 1.09159 0.101177 0.88561 0.25846 0.73122L0.758985 0.239756C0.916019 0.0851219 1.12594 0 1.34963 0C1.57333 0 1.783 0.0851219 1.94016 0.239756L8.7413 6.92098C8.89908 7.07585 8.98548 7.2828 8.98486 7.5028C8.98548 7.72378 8.8992 7.93049 8.7413 8.08549L1.94649 14.7602C1.78933 14.9149 1.57966 15 1.35584 15C1.13214 15 0.922474 14.9149 0.765191 14.7602L0.264791 14.2688C-0.0608234 13.9489 -0.0608234 13.4282 0.264791 13.1084L5.97054 7.50317Z" fill="#F3353E"/>
</svg>
