<svg width="780" height="137" viewBox="0 0 780 137" fill="none" xmlns="http://www.w3.org/2000/svg">
<g filter="url(#filter0_d)">
<path fill-rule="evenodd" clip-rule="evenodd" d="M56.5 159C88.2 136.855 247 164 285 159C323 154 346.61 95 385 87C423.39 79 473 105.572 510 87C547 68.4277 560 39 608 38C656 37 662 48 695 18C728 -12 736 -40 736 -40H79.7897L-5 -22C-5 -22 -12 82 -12 87C-12 92 -5 149 -5 154C-5 159 32.2 159 32.2 159C32.2 159 24.8 181.145 56.5 159Z" fill="url(#paint0_linear)"/>
<path fill-rule="evenodd" clip-rule="evenodd" d="M56.5 159C88.2 136.855 247 164 285 159C323 154 346.61 95 385 87C423.39 79 473 105.572 510 87C547 68.4277 560 39 608 38C656 37 662 48 695 18C728 -12 736 -40 736 -40H79.7897L-5 -22C-5 -22 -12 82 -12 87C-12 92 -5 149 -5 154C-5 159 32.2 159 32.2 159C32.2 159 24.8 181.145 56.5 159Z" stroke="url(#paint1_linear)"/>
</g>
<defs>
<filter id="filter0_d" x="-55.5" y="-81.5" width="835.163" height="295.841" filterUnits="userSpaceOnUse" color-interpolation-filters="sRGB">
<feFlood flood-opacity="0" result="BackgroundImageFix"/>
<feColorMatrix in="SourceAlpha" type="matrix" values="0 0 0 0 0 0 0 0 0 0 0 0 0 0 0 0 0 0 127 0"/>
<feOffset dy="2"/>
<feGaussianBlur stdDeviation="21.5"/>
<feColorMatrix type="matrix" values="0 0 0 0 0 0 0 0 0 0 0 0 0 0 0 0 0 0 0.5 0"/>
<feBlend mode="normal" in2="BackgroundImageFix" result="effect1_dropShadow"/>
<feBlend mode="normal" in="SourceGraphic" in2="effect1_dropShadow" result="shape"/>
</filter>
<linearGradient id="paint0_linear" x1="621.949" y1="-22.1694" x2="0.92732" y2="-22.1694" gradientUnits="userSpaceOnUse">
<stop stop-color="#ED333C"/>
<stop offset="1" stop-color="#EDA333"/>
</linearGradient>
<linearGradient id="paint1_linear" x1="621.949" y1="-22.1694" x2="0.92732" y2="-22.1694" gradientUnits="userSpaceOnUse">
<stop stop-color="#ED333C"/>
<stop offset="1" stop-color="#EDA333"/>
</linearGradient>
</defs>
</svg>
